<svg width="20" height="20" viewBox="0 0 20 20" fill="none" xmlns="http://www.w3.org/2000/svg">
<path d="M16 16V19C16 19.2652 15.8946 19.5196 15.7071 19.7071C15.5196 19.8946 15.2652 20 15 20H5C4.73478 20 4.48043 19.8946 4.29289 19.7071C4.10536 19.5196 4 19.2652 4 19V16H1C0.734784 16 0.48043 15.8946 0.292893 15.7071C0.105357 15.5196 0 15.2652 0 15V10C0 4.477 4.477 0 10 0C15.523 0 20 4.477 20 10V15C20 15.2652 19.8946 15.5196 19.7071 15.7071C19.5196 15.8946 19.2652 16 19 16H16ZM5.5 12C5.69698 12 5.89204 11.9612 6.07403 11.8858C6.25601 11.8104 6.42137 11.6999 6.56066 11.5607C6.69995 11.4214 6.81044 11.256 6.88582 11.074C6.9612 10.892 7 10.697 7 10.5C7 10.303 6.9612 10.108 6.88582 9.92597C6.81044 9.74399 6.69995 9.57863 6.56066 9.43934C6.42137 9.30005 6.25601 9.18956 6.07403 9.11418C5.89204 9.0388 5.69698 9 5.5 9C5.10218 9 4.72064 9.15804 4.43934 9.43934C4.15804 9.72064 4 10.1022 4 10.5C4 10.8978 4.15804 11.2794 4.43934 11.5607C4.72064 11.842 5.10218 12 5.5 12V12ZM14.5 12C14.697 12 14.892 11.9612 15.074 11.8858C15.256 11.8104 15.4214 11.6999 15.5607 11.5607C15.6999 11.4214 15.8104 11.256 15.8858 11.074C15.9612 10.892 16 10.697 16 10.5C16 10.303 15.9612 10.108 15.8858 9.92597C15.8104 9.74399 15.6999 9.57863 15.5607 9.43934C15.4214 9.30005 15.256 9.18956 15.074 9.11418C14.892 9.0388 14.697 9 14.5 9C14.1022 9 13.7206 9.15804 13.4393 9.43934C13.158 9.72064 13 10.1022 13 10.5C13 10.8978 13.158 11.2794 13.4393 11.5607C13.7206 11.842 14.1022 12 14.5 12V12Z" fill="#CCCCCC"/>
</svg>
