<svg width="20" height="20" viewBox="0 0 20 20" fill="none" xmlns="http://www.w3.org/2000/svg">
<path d="M19.3349 9.8496L10.4855 1.00664C10.4218 0.942792 10.3461 0.892142 10.2628 0.857584C10.1795 0.823025 10.0902 0.805237 9.99998 0.805237C9.90978 0.805237 9.82046 0.823025 9.73715 0.857584C9.65383 0.892142 9.57815 0.942792 9.51443 1.00664L0.665015 9.8496C0.407202 10.1074 0.261108 10.4576 0.261108 10.8228C0.261108 11.5812 0.87771 12.1978 1.63611 12.1978H2.56853V18.5078C2.56853 18.8881 2.87576 19.1953 3.25603 19.1953H8.62498V14.3828H11.0312V19.1953H16.7439C17.1242 19.1953 17.4314 18.8881 17.4314 18.5078V12.1978H18.3638C18.7291 12.1978 19.0793 12.0539 19.3371 11.7939C19.872 11.2568 19.872 10.3867 19.3349 9.8496V9.8496Z" fill="#CCCCCC"/>
</svg>
